<svg xmlns:xlink="http://www.w3.org/1999/xlink" xmlns="http://www.w3.org/2000/svg" class="header__logo-image" width="331"  height="36" ><defs><svg viewBox="0 0 331 36" id="header-logo-ru">
        <path fill-rule="evenodd" clip-rule="evenodd" d="M11.2957 21.7628C11.2957 22.8224 10.4369 23.6812 9.3773 23.6812C8.31872 23.6812 7.45996 22.8224 7.45996 21.7628C7.45996 20.7042 8.31872 19.8444 9.3773 19.8444C10.4369 19.8444 11.2957 20.7042 11.2957 21.7628ZM20.5112 9.37806C20.5112 10.9664 19.2231 12.2546 17.6347 12.2546C16.0453 12.2546 14.7571 10.9664 14.7571 9.37806C14.7571 7.78864 16.0453 6.50154 17.6347 6.50154C19.2231 6.50154 20.5112 7.78864 20.5112 9.37806ZM28.7678 13.5063C28.7678 15.0947 27.4796 16.3829 25.8912 16.3829C24.3028 16.3829 23.0137 15.0947 23.0137 13.5063C23.0137 11.9169 24.3028 10.6298 25.8912 10.6298C27.4796 10.6298 28.7678 11.9169 28.7678 13.5063ZM37.0245 17.6344C37.0245 19.2238 35.7364 20.5109 34.148 20.5109C32.5596 20.5109 31.2715 19.2238 31.2715 17.6344C31.2715 16.046 32.5596 14.7579 34.148 14.7579C35.7364 14.7579 37.0245 16.046 37.0245 17.6344ZM28.7678 21.763C28.7678 23.3514 27.4796 24.6395 25.8912 24.6395C24.3028 24.6395 23.0137 23.3514 23.0137 21.763C23.0137 20.1736 24.3028 18.8865 25.8912 18.8865C27.4796 18.8865 28.7678 20.1736 28.7678 21.763ZM45.2808 21.763C45.2808 23.3514 43.9926 24.6395 42.4032 24.6395C40.8148 24.6395 39.5267 23.3514 39.5267 21.763C39.5267 20.1736 40.8148 18.8865 42.4032 18.8865C43.9926 18.8865 45.2808 20.1736 45.2808 21.763ZM44.3219 30.0194C44.3219 31.0791 43.4631 31.9378 42.4035 31.9378C41.3449 31.9378 40.4852 31.0791 40.4852 30.0194C40.4852 28.9598 41.3449 28.1021 42.4035 28.1021C43.4631 28.1021 44.3219 28.9598 44.3219 30.0194ZM52.5792 25.8912C52.5792 26.9508 51.7204 27.8095 50.6608 27.8095C49.6022 27.8095 48.7435 26.9508 48.7435 25.8912C48.7435 24.8326 49.6022 23.9738 50.6608 23.9738C51.7204 23.9738 52.5792 24.8326 52.5792 25.8912ZM53.5379 17.6344C53.5379 19.2228 52.2498 20.5109 50.6614 20.5109C49.073 20.5109 47.7839 19.2228 47.7839 17.6344C47.7839 16.046 49.073 14.7579 50.6614 14.7579C52.2498 14.7579 53.5379 16.046 53.5379 17.6344ZM45.2808 13.5061C45.2808 15.0945 43.9926 16.3827 42.4032 16.3827C40.8148 16.3827 39.5267 15.0945 39.5267 13.5061C39.5267 11.9177 40.8148 10.6296 42.4032 10.6296C43.9926 10.6296 45.2808 11.9177 45.2808 13.5061ZM36.0658 25.8912C36.0658 26.9508 35.2071 27.8095 34.1475 27.8095C33.0889 27.8095 32.2291 26.9508 32.2291 25.8912C32.2291 24.8316 33.0889 23.9738 34.1475 23.9738C35.2071 23.9738 36.0658 24.8316 36.0658 25.8912ZM53.5379 9.37775C53.5379 10.9661 52.2498 12.2543 50.6614 12.2543C49.073 12.2543 47.7839 10.9661 47.7839 9.37775C47.7839 7.78936 49.073 6.50123 50.6614 6.50123C52.2498 6.50123 53.5379 7.78936 53.5379 9.37775ZM60.8357 5.24937C60.8357 6.30898 59.977 7.16774 58.9173 7.16774C57.8577 7.16774 57 6.30898 57 5.24937C57 4.19079 57.8577 3.33203 58.9173 3.33203C59.977 3.33203 60.8357 4.19079 60.8357 5.24937ZM60.8357 21.7628C60.8357 22.8224 59.977 23.6812 58.9173 23.6812C57.8588 23.6812 56.999 22.8224 56.999 21.7628C56.999 20.7032 57.8588 19.8444 58.9173 19.8444C59.977 19.8444 60.8357 20.7032 60.8357 21.7628ZM36.0658 9.37806C36.0658 10.4366 35.2071 11.2954 34.1475 11.2954C33.0889 11.2954 32.2291 10.4366 32.2291 9.37806C32.2291 8.31845 33.0889 7.45969 34.1475 7.45969C35.2071 7.45969 36.0658 8.31845 36.0658 9.37806ZM27.809 30.0194C27.809 31.0791 26.9502 31.9378 25.8906 31.9378C24.832 31.9378 23.9733 31.0791 23.9733 30.0194C23.9733 28.9598 24.832 28.1021 25.8906 28.1021C26.9502 28.1021 27.809 28.9598 27.809 30.0194ZM20.5112 17.6344C20.5112 19.2228 19.2231 20.5109 17.6347 20.5109C16.0463 20.5109 14.7571 19.2228 14.7571 17.6344C14.7571 16.046 16.0463 14.7579 17.6347 14.7579C19.2231 14.7579 20.5112 16.046 20.5112 17.6344Z" fill="#FFFFFF"></path>
        <path fill-rule="evenodd" clip-rule="evenodd" d="M12.2545 13.5062C12.2545 15.0946 10.9664 16.3827 9.37799 16.3827C7.7896 16.3827 6.50146 15.0946 6.50146 13.5062C6.50146 11.9178 7.7896 10.6296 9.37799 10.6296C10.9664 10.6296 12.2545 11.9178 12.2545 13.5062Z" fill="#EC1947"></path>
        <path fill-rule="evenodd" clip-rule="evenodd" d="M2.24219 25.8912C2.24219 26.5101 1.74006 27.0123 1.1211 27.0123C0.501112 27.0123 0 26.5101 0 25.8912C0 25.2722 0.501112 24.7701 1.1211 24.7701C1.74006 24.7701 2.24219 25.2722 2.24219 25.8912ZM2.24219 17.6344C2.24219 18.2534 1.74006 18.7555 1.1211 18.7555C0.501112 18.7555 0 18.2534 0 17.6344C0 17.0154 0.501112 16.5133 1.1211 16.5133C1.74006 16.5133 2.24219 17.0154 2.24219 17.6344ZM18.7551 25.8329C18.7551 26.4518 18.253 26.954 17.634 26.954C17.015 26.954 16.5129 26.4518 16.5129 25.8329C16.5129 25.2139 17.015 24.7118 17.634 24.7118C18.253 24.7118 18.7551 25.2139 18.7551 25.8329ZM18.7551 1.1211C18.7551 1.74006 18.253 2.24219 17.634 2.24219C17.015 2.24219 16.5129 1.74006 16.5129 1.1211C16.5129 0.502136 17.015 0 17.634 0C18.253 0 18.7551 0.502136 18.7551 1.1211ZM35.2104 34.148C35.2104 34.767 34.7083 35.2691 34.0893 35.2691C33.4693 35.2691 32.9682 34.767 32.9682 34.148C32.9682 33.5291 33.4693 33.0269 34.0893 33.0269C34.7083 33.0269 35.2104 33.5291 35.2104 34.148ZM10.4988 5.24937C10.4988 5.86833 9.99671 6.37047 9.37775 6.37047C8.75777 6.37047 8.25666 5.86833 8.25666 5.24937C8.25666 4.63041 8.75777 4.12828 9.37775 4.12828C9.99671 4.12828 10.4988 4.63041 10.4988 5.24937ZM27.0118 5.24937C27.0118 5.86833 26.5096 6.37047 25.8907 6.37047C25.2707 6.37047 24.7696 5.86833 24.7696 5.24937C24.7696 4.63041 25.2707 4.12828 25.8907 4.12828C26.5096 4.12828 27.0118 4.63041 27.0118 5.24937Z" fill="#FFFFFF"></path>
        <path fill-rule="evenodd" clip-rule="evenodd" d="M35.2105 34.1481C35.2105 34.767 34.7083 35.2692 34.0894 35.2692C33.4694 35.2692 32.9683 34.767 32.9683 34.1481C32.9683 33.5291 33.4694 33.027 34.0894 33.027C34.7083 33.027 35.2105 33.5291 35.2105 34.1481ZM76.5526 13.5062C76.5526 14.1251 76.0504 14.6273 75.4315 14.6273C74.8125 14.6273 74.3104 14.1251 74.3104 13.5062C74.3104 12.8872 74.8125 12.3851 75.4315 12.3851C76.0504 12.3851 76.5526 12.8872 76.5526 13.5062ZM60.0386 30.0195C60.0386 30.6384 59.5375 31.1406 58.9175 31.1406C58.2996 31.1406 57.7964 30.6384 57.7964 30.0195C57.7964 29.4005 58.2996 28.8984 58.9175 28.8984C59.5375 28.8984 60.0386 29.4005 60.0386 30.0195ZM70.0511 9.3781C70.0511 10.9665 68.763 12.2546 67.1736 12.2546C65.5852 12.2546 64.2971 10.9665 64.2971 9.3781C64.2971 7.78971 65.5852 6.50158 67.1736 6.50158C68.763 6.50158 70.0511 7.78971 70.0511 9.3781ZM61.7944 13.5064C61.7944 15.0948 60.5062 16.3829 58.9168 16.3829C57.3295 16.3829 56.0413 15.0948 56.0413 13.5064C56.0413 11.918 57.3295 10.6299 58.9168 10.6299C60.5062 10.6299 61.7944 11.918 61.7944 13.5064ZM68.2952 25.8912C68.2952 26.5102 67.793 27.0123 67.1741 27.0123C66.5541 27.0123 66.053 26.5102 66.053 25.8912C66.053 25.2722 66.5541 24.7701 67.1741 24.7701C67.793 24.7701 68.2952 25.2722 68.2952 25.8912ZM69.0918 17.6348C69.0918 18.6933 68.2341 19.5521 67.1745 19.5521C66.1149 19.5521 65.2561 18.6933 65.2561 17.6348C65.2561 16.5751 66.1149 15.7164 67.1745 15.7164C68.2341 15.7164 69.0918 16.5751 69.0918 17.6348ZM43.5247 5.24941C43.5247 5.86837 43.0236 6.37051 42.4036 6.37051C41.7846 6.37051 41.2825 5.86837 41.2825 5.24941C41.2825 4.63045 41.7846 4.12832 42.4036 4.12832C43.0236 4.12832 43.5247 4.63045 43.5247 5.24941ZM68.2952 1.12134C68.2952 1.7403 67.793 2.24244 67.1741 2.24244C66.5541 2.24244 66.053 1.7403 66.053 1.12134C66.053 0.50238 66.5541 0.000244141 67.1741 0.000244141C67.793 0.000244141 68.2952 0.50238 68.2952 1.12134ZM76.5526 5.24941C76.5526 5.86837 76.0504 6.37051 75.4315 6.37051C74.8125 6.37051 74.3104 5.86837 74.3104 5.24941C74.3104 4.63045 74.8125 4.12832 75.4315 4.12832C76.0504 4.12832 76.5526 4.63045 76.5526 5.24941ZM99.6617 11.7043C99.9117 11.1038 99.9589 10.614 99.8021 10.2471C99.6822 9.96734 99.4444 9.75624 99.094 9.61994C98.2393 9.30842 97.5619 9.71525 97.108 10.8158L93.9189 18.5508L89.5206 10.6519C89.2603 10.162 88.9477 9.83207 88.5901 9.66811C88.2263 9.5021 87.8246 9.52669 87.3973 9.74907C87.0007 9.97144 86.7834 10.3137 86.7506 10.7667C86.7199 11.2063 86.8367 11.6459 87.095 12.0722L92.4996 21.4652C92.2608 22.0832 92.0056 22.5494 91.7413 22.8507C91.4779 23.151 91.1735 23.2965 90.8097 23.2965C90.6468 23.2965 90.4921 23.2811 90.3517 23.2514C90.2103 23.2217 90.0432 23.1684 89.8547 23.0936C89.6538 23.0137 89.5155 22.9655 89.4417 22.9511C88.628 22.6857 88.0736 22.9143 87.8072 23.6142C87.51 24.4084 87.799 25.0519 88.667 25.5254C89.2378 25.843 90.0063 26.0039 90.9501 26.0039C91.9995 26.0039 92.8746 25.6043 93.551 24.8173C94.215 24.0436 94.9221 22.7841 95.6518 21.0748L99.6617 11.7043ZM104.049 25.7708C104.509 25.7708 104.878 25.6273 105.143 25.3445C105.409 25.0637 105.543 24.6968 105.543 24.2541V18.8014H112.764V24.2541C112.764 24.6958 112.894 25.0627 113.15 25.3435C113.408 25.6273 113.781 25.7708 114.258 25.7708C114.719 25.7708 115.087 25.6273 115.352 25.3445C115.618 25.0637 115.751 24.6968 115.751 24.2541V11.0387C115.751 10.596 115.618 10.2261 115.353 9.93711C115.087 9.64505 114.719 9.49748 114.258 9.49748C113.781 9.49748 113.407 9.64608 113.149 9.93814C112.894 10.2261 112.764 10.596 112.764 11.0387V16.1175H105.543V11.0387C105.543 10.596 105.409 10.2251 105.145 9.93711C104.878 9.64505 104.509 9.49748 104.049 9.49748C103.573 9.49748 103.198 9.64608 102.94 9.93814C102.684 10.2271 102.555 10.5971 102.555 11.0387V24.2541C102.555 24.6958 102.685 25.0627 102.941 25.3435C103.199 25.6273 103.573 25.7708 104.049 25.7708ZM121.413 25.7708C121.893 25.7708 122.357 25.4839 122.795 24.9161L130.198 14.8027V24.2541C130.198 24.6804 130.327 25.0432 130.584 25.3312C130.842 25.6222 131.222 25.7708 131.715 25.7708C132.193 25.7708 132.561 25.6273 132.813 25.3424C133.061 25.0617 133.186 24.6958 133.186 24.2541V11.0387C133.186 10.016 132.707 9.49748 131.762 9.49748C131.219 9.49748 130.739 9.77725 130.333 10.3296L122.977 20.5096V11.0387C122.977 10.5971 122.847 10.2271 122.591 9.93814C122.332 9.64608 121.959 9.49748 121.483 9.49748C120.99 9.49748 120.613 9.64608 120.362 9.93916C120.115 10.2271 119.989 10.5971 119.989 11.0387V24.2541C119.989 24.7276 120.116 25.1026 120.365 25.367C120.616 25.6345 120.968 25.7708 121.413 25.7708ZM145.449 22.8228C144.885 23.1989 144.028 23.3895 142.903 23.3895C141.894 23.3895 141.017 23.3455 140.294 23.2604V18.5916H142.88C145.168 18.5916 146.281 19.3694 146.281 20.967C146.281 21.8309 146.001 22.455 145.449 22.8228ZM142.576 16.3043H140.294V12.0095C141.002 11.9388 141.691 11.9029 142.344 11.9029C144.475 11.9029 145.511 12.5803 145.511 13.975C145.511 15.5419 144.551 16.3043 142.576 16.3043ZM146.603 17.0585C147.172 16.7552 147.637 16.3166 147.984 15.7499C148.372 15.1156 148.568 14.4239 148.568 13.6952C148.568 10.8331 146.56 9.38097 142.6 9.38097C141.203 9.38097 139.935 9.47627 138.831 9.66278C137.897 9.82674 137.423 10.3832 137.423 11.3178V24.0444C137.423 24.9656 137.89 25.4985 138.809 25.6297C139.911 25.8008 141.249 25.8869 142.786 25.8869C147.133 25.8869 149.338 24.193 149.338 20.8512C149.338 19.9166 149.072 19.1009 148.549 18.4266C148.069 17.8087 147.415 17.3496 146.603 17.0585ZM163.537 25.4071C163.796 25.1642 163.929 24.8394 163.929 24.4408C163.929 24.0267 163.796 23.6937 163.537 23.4498C163.279 23.209 162.931 23.087 162.505 23.087H155.864V18.7553H160.966C161.41 18.7553 161.765 18.6283 162.022 18.3793C162.282 18.1282 162.413 17.7992 162.413 17.4016C162.413 16.9866 162.281 16.6566 162.021 16.4219C161.763 16.1883 161.408 16.0704 160.966 16.0704H155.864V12.1825H162.272C162.699 12.1825 163.046 12.0595 163.303 11.8187C163.564 11.5758 163.695 11.251 163.695 10.8523C163.695 10.4373 163.564 10.1042 163.303 9.86138C163.046 9.62056 162.699 9.49759 162.272 9.49759H154.393C153.918 9.49759 153.54 9.64515 153.274 9.93721C153.011 10.2252 152.876 10.5961 152.876 11.0388V24.2307C152.876 24.6734 153.014 25.0443 153.287 25.3323C153.561 25.6233 153.941 25.7709 154.417 25.7709H162.505C162.931 25.7709 163.279 25.649 163.537 25.4071ZM169.871 12.1471C170.519 12.0621 171.17 12.019 171.804 12.019C173.951 12.019 174.995 12.8952 174.995 14.6978C174.995 16.6254 173.898 17.562 171.641 17.562C170.902 17.562 170.308 17.5354 169.871 17.481V12.1471ZM178.123 14.6281C178.123 12.8327 177.557 11.4943 176.442 10.6479C175.334 9.80758 173.797 9.38128 171.874 9.38128C170.506 9.38128 169.292 9.48375 168.267 9.68563C167.349 9.86599 166.884 10.447 166.884 11.4113V24.2537C166.884 24.6954 167.013 25.0623 167.269 25.3441C167.529 25.6269 167.902 25.7704 168.377 25.7704C168.838 25.7704 169.206 25.6279 169.472 25.3451C169.737 25.0633 169.871 24.6975 169.871 24.2537V20.0768C170.337 20.1434 170.985 20.1772 171.804 20.1772C173.666 20.1772 175.2 19.7068 176.362 18.7815C177.53 17.85 178.123 16.4522 178.123 14.6281ZM191.265 22.3302C190.151 22.9871 189.054 23.3191 188.003 23.3191C186.687 23.3191 185.586 22.8098 184.732 21.8035C183.873 20.7921 183.437 19.382 183.437 17.6112C183.437 15.9008 183.843 14.5123 184.641 13.4855C185.938 11.8182 188.074 11.4913 190.953 12.596C191.923 12.9567 192.56 12.8081 192.845 12.1738C193.177 11.4605 192.977 10.8477 192.254 10.3538C191.217 9.63132 189.748 9.26445 187.887 9.26445C185.523 9.26445 183.648 10.033 182.315 11.5466C180.984 13.0571 180.31 15.1046 180.31 17.6348C180.31 20.1946 180.945 22.2493 182.197 23.7434C183.453 25.2437 185.337 26.004 187.794 26.004C189.732 26.004 191.351 25.5347 192.606 24.6093C193.011 24.3019 193.262 23.9463 193.352 23.5528C193.444 23.1521 193.379 22.8037 193.163 22.5219C192.749 21.9244 192.104 21.8527 191.265 22.3302ZM208.375 9.49789C207.833 9.49789 207.352 9.77766 206.945 10.33L199.589 20.51V11.0381C199.589 10.5975 199.46 10.2265 199.205 9.93752C198.946 9.64649 198.573 9.49789 198.096 9.49789C197.603 9.49789 197.226 9.64649 196.974 9.93854C196.727 10.2275 196.602 10.5975 196.602 11.0381V24.2535C196.602 24.728 196.728 25.102 196.977 25.3674C197.228 25.6349 197.581 25.7712 198.026 25.7712C198.506 25.7712 198.97 25.4843 199.408 24.9155L206.811 14.8031V24.2535C206.811 24.6809 206.941 25.0426 207.196 25.3306C207.454 25.6226 207.836 25.7712 208.329 25.7712C208.805 25.7712 209.174 25.6267 209.425 25.3418C209.673 25.0621 209.798 24.6952 209.798 24.2535V11.0381C209.798 10.0164 209.32 9.49789 208.375 9.49789ZM226.324 10.8284C226.324 10.4133 226.191 10.0844 225.931 9.84867C225.673 9.61605 225.318 9.4982 224.877 9.4982H213.829C213.402 9.4982 213.056 9.61605 212.797 9.84867C212.536 10.0844 212.404 10.4133 212.404 10.8284C212.404 11.226 212.535 11.5549 212.795 11.806C213.053 12.056 213.401 12.1821 213.829 12.1821H217.859V24.2538C217.859 24.6955 217.988 25.0624 218.245 25.3432C218.504 25.627 218.876 25.7705 219.352 25.7705C219.829 25.7705 220.202 25.627 220.46 25.3442C220.716 25.0624 220.846 24.6965 220.846 24.2538V12.1821H224.877C225.319 12.1821 225.675 12.056 225.933 11.806C226.193 11.5549 226.324 11.226 226.324 10.8284ZM238.558 23.0866H231.918V18.7549H237.02C237.463 18.7549 237.818 18.6289 238.077 18.3788C238.335 18.1278 238.467 17.7998 238.467 17.4012C238.467 16.9862 238.335 16.6562 238.075 16.4215C237.816 16.1889 237.462 16.0711 237.02 16.0711H231.918V12.1821H238.325C238.752 12.1821 239.099 12.0601 239.358 11.8183C239.617 11.5764 239.749 11.2506 239.749 10.8519C239.749 10.4369 239.617 10.1049 239.358 9.86199C239.099 9.62015 238.752 9.4982 238.325 9.4982H230.446C229.971 9.4982 229.594 9.64577 229.328 9.9368C229.064 10.2258 228.93 10.5957 228.93 11.0384V24.2303C228.93 24.674 229.068 25.0439 229.341 25.3329C229.614 25.6239 229.994 25.7705 230.47 25.7705H238.558C238.985 25.7705 239.332 25.6485 239.59 25.4067C239.851 25.1638 239.982 24.839 239.982 24.4403C239.982 24.0263 239.851 23.6933 239.59 23.4504C239.332 23.2086 238.985 23.0866 238.558 23.0866ZM254.992 10.8284C254.992 10.4133 254.86 10.0844 254.6 9.84867C254.341 9.61605 253.987 9.4982 253.545 9.4982H242.497C242.072 9.4982 241.725 9.61605 241.466 9.84867C241.205 10.0844 241.073 10.4133 241.073 10.8284C241.073 11.226 241.205 11.5549 241.463 11.806C241.721 12.056 242.07 12.1821 242.497 12.1821H246.528V24.2538C246.528 24.6955 246.658 25.0624 246.914 25.3432C247.172 25.627 247.544 25.7705 248.021 25.7705C248.498 25.7705 248.87 25.627 249.128 25.3442C249.385 25.0624 249.515 24.6965 249.515 24.2538V12.1821H253.545C253.989 12.1821 254.345 12.056 254.603 11.806C254.861 11.5549 254.992 11.226 254.992 10.8284ZM277.321 24.2539V11.0385C277.321 10.0158 276.841 9.4983 275.897 9.4983C275.355 9.4983 274.874 9.77807 274.468 10.3294L267.112 20.5105V11.0385C267.112 10.5969 266.983 10.2269 266.727 9.93793C266.469 9.64587 266.095 9.4983 265.619 9.4983C265.126 9.4983 264.748 9.64587 264.497 9.93895C264.25 10.2279 264.125 10.5979 264.125 11.0385V24.2539C264.125 24.7274 264.251 25.1014 264.5 25.3679C264.75 25.6353 265.104 25.7706 265.548 25.7706C266.028 25.7706 266.493 25.4837 266.931 24.9159L274.334 14.8025V24.2539C274.334 24.6802 274.463 25.043 274.718 25.331C274.976 25.623 275.357 25.7706 275.85 25.7706C276.328 25.7706 276.697 25.6271 276.948 25.3422C277.195 25.0615 277.321 24.6956 277.321 24.2539ZM292.399 9.49789H281.351C280.926 9.49789 280.578 9.61574 280.319 9.84836C280.059 10.0841 279.928 10.414 279.928 10.828C279.928 11.2267 280.059 11.5546 280.317 11.8057C280.575 12.0557 280.924 12.1818 281.351 12.1818H285.382V24.2535C285.382 24.6962 285.512 25.0621 285.768 25.3439C286.026 25.6277 286.399 25.7712 286.875 25.7712C287.352 25.7712 287.724 25.6277 287.982 25.3439C288.239 25.0621 288.369 24.6962 288.369 24.2535V12.1818H292.399C292.843 12.1818 293.198 12.0557 293.456 11.8057C293.715 11.5546 293.846 11.2267 293.846 10.828C293.846 10.414 293.714 10.0841 293.454 9.84836C293.195 9.61574 292.841 9.49789 292.399 9.49789ZM309.903 9.49789C309.327 9.49789 308.838 9.81045 308.447 10.4284L303.866 17.8282L299.193 10.452C298.803 9.81865 298.29 9.49789 297.667 9.49789C297.255 9.49789 296.914 9.62906 296.655 9.88731C296.397 10.1455 296.266 10.5411 296.266 11.0617V24.2535C296.266 25.2609 296.737 25.7712 297.667 25.7712C298.596 25.7712 299.067 25.2609 299.067 24.2535V15.21L302.341 20.342C302.7 20.9128 303.166 21.2028 303.727 21.2028C304.272 21.2028 304.731 20.9046 305.09 20.3184L308.316 15.1023V24.2535C308.316 24.6962 308.451 25.0631 308.716 25.3449C308.982 25.6277 309.35 25.7712 309.81 25.7712C310.287 25.7712 310.66 25.6277 310.918 25.3439C311.174 25.0631 311.304 24.6962 311.304 24.2535V11.0381C311.304 10.5821 311.183 10.2081 310.943 9.92727C310.7 9.64239 310.35 9.49789 309.903 9.49789Z" fill="#FFFFFF"></path>
        <mask id="mask0" mask-type="alpha" maskUnits="userSpaceOnUse" x="314" y="9" width="17" height="18">
            <path d="M330.346 26.004V9.26501H314.843V26.004H330.346Z" fill="#FFFFFF"></path>
        </mask>
        <g mask="url(#mask0)">
            <path fill-rule="evenodd" clip-rule="evenodd" d="M326.015 21.7376C325.222 22.7869 324.067 23.3188 322.583 23.3188C321.114 23.3188 319.968 22.7869 319.174 21.7376C318.375 20.679 317.969 19.2986 317.969 17.6344C317.969 15.9702 318.375 14.5898 319.174 13.5302C319.968 12.4819 321.114 11.949 322.583 11.949C324.067 11.949 325.222 12.4819 326.015 13.5302C326.814 14.5888 327.219 15.9702 327.219 17.6344C327.219 19.2986 326.814 20.68 326.015 21.7376ZM328.318 11.6283C326.97 10.0604 325.04 9.26514 322.583 9.26514C320.125 9.26514 318.199 10.0604 316.857 11.6283C315.521 13.1931 314.843 15.2139 314.843 17.6344C314.843 20.0703 315.521 22.0952 316.858 23.6519C318.2 25.2126 320.125 26.0037 322.583 26.0037C325.039 26.0037 326.97 25.2126 328.318 23.6519C329.664 22.0952 330.346 20.0703 330.346 17.6344C330.346 15.2139 329.664 13.1931 328.318 11.6283Z" fill="#FFFFFF"></path>
        </g>
    </svg></defs>
                                <use xlink:href="#header-logo-ru" fill="#FFFFFF"></use>
                            </svg>